<svg id="about-outline" xmlns="http://www.w3.org/2000/svg" viewBox="0 0 339.51 88.93">
  <path d="m50.73,5.14l26.1,73.54c1.28,3.48,4.41,6.5,6.73,6.5v1.16h-41.76v-1.16c7.42,0,8.7-4.76,6.5-11.14l-4.64-13.34h-27.03l-1.86,5.1c-3.25,9.05-.58,19.37,10.9,19.37v1.16H.5v-1.16c3.6-1.16,7.31-5.45,10.44-14.15L29.5,19.87l-4.76-13.57v-1.16h25.98Zm-7.66,53.82l-12.76-36.77-13.11,36.77h25.87Z" fill="none" stroke="var(--text-stroke, #000)" stroke-miterlimit="10"/>
  <path d="m109.66,88.43c-7.66,0-19.02-3.25-23.9-6.61V8.85l-5.1-2.55v-1.16L108.38.5h1.16v34.1c2.9-4.99,8.47-7.19,14.04-7.19,12.41,0,23.78,10.9,23.78,27.14s-10.44,33.87-37.7,33.87Zm4.41-1.97c4.87,0,6.84-10.9,6.84-27.84,0-15.43-1.97-25.52-6.96-25.52-1.97,0-3.71,1.97-4.41,3.94v42.57c0,4.29,1.97,6.84,4.52,6.84Z" fill="none" stroke="var(--text-stroke, #000)" stroke-miterlimit="10"/>
  <path d="m185.17,27.41c19.6,0,33.18,12.41,33.18,30.51s-13.57,30.51-33.18,30.51-33.18-12.41-33.18-30.51,13.57-30.51,33.18-30.51Zm0,59.27c5.22,0,7.08-13.11,7.08-28.77s-1.97-28.77-7.08-28.77-7.08,13.11-7.08,28.77,1.97,28.77,7.08,28.77Z" fill="none" stroke="var(--text-stroke, #000)" stroke-miterlimit="10"/>
  <path d="m257.21,31.47v-1.16l28.65-1.39h1.16v46.28c0,5.1,1.28,6.5,6.84,7.42v1.16l-29.35,3.71h-1.16v-11.83c-1.28,6.38-8.58,12.64-17.52,12.64-10.09,0-16.24-7.19-16.24-16.82v-33.64c0-5.22-2.44-6.38-6.03-6.38v-1.16l28.65-1.39h1.16v43.96c0,4.18,1.86,6.15,4.41,6.15,2.2,0,4.99-2.67,5.57-6.26l-.12-34.92c0-5.22-2.44-6.38-6.03-6.38Z" fill="none" stroke="var(--text-stroke, #000)" stroke-miterlimit="10"/>
  <path d="m301.05,70.91V31.24h-4.87v-1.39c8.93,0,20.76-6.73,28.3-16.01h1.16l-.7,15.66h11.83v1.74h-11.95v43.5c0,4.64,2.55,6.73,5.8,6.73s5.8-1.97,7.31-4.18l.93.58c-3.02,6.61-9.86,10.56-19.02,10.56-12.53,0-18.79-6.84-18.79-17.52Z" fill="none" stroke="var(--text-stroke, #000)" stroke-miterlimit="10"/>
</svg>