<svg id="contact-outline" xmlns="http://www.w3.org/2000/svg" viewBox="0 0 440.31 86.37">
  <path d="m48.41,2.24c-13.69,0-19.49,19.6-19.49,40.95,0,23.78,8.35,40.95,19.95,40.95,12.88,0,25.64-16.47,29.58-30.51h1.16l-2.32,24.71c-5.57,3.25-16.59,7.54-30.97,7.54C22.19,85.87.5,71.95.5,43.19S21.73.5,45.97.5c12.76,0,24.36,3.36,32.36,8v22.97h-1.16c-1.51-6.5-11.14-29.23-28.77-29.23Z" fill="none" stroke="var(--text-stroke, #000)" stroke-miterlimit="10"/>
  <path d="m119.75,24.86c19.6,0,33.18,12.41,33.18,30.51s-13.57,30.51-33.18,30.51-33.18-12.41-33.18-30.51,13.57-30.51,33.18-30.51Zm0,59.27c5.22,0,7.08-13.11,7.08-28.77s-1.97-28.77-7.08-28.77-7.08,13.11-7.08,28.77,1.97,28.77,7.08,28.77Z" fill="none" stroke="var(--text-stroke, #000)" stroke-miterlimit="10"/>
  <path d="m162.55,74.85v-40.48l-5.1-3.36v-1.16l27.72-4.64h1.16v12.18c1.39-6.15,7.89-12.53,16.59-12.53,10.09,0,17.05,6.61,17.05,16.24v33.76c0,5.8,2.32,7.77,5.57,7.77v1.16h-32.6v-1.16c2.67,0,3.25-1.97,3.25-6.61v-35.73c0-4.18-1.86-6.15-4.41-6.15-2.32,0-4.99,2.67-5.45,6.5v35.38c0,4.64,1.16,6.61,3.25,6.61v1.16h-32.6v-1.16c3.83,0,5.57-1.97,5.57-7.77Z" fill="none" stroke="var(--text-stroke, #000)" stroke-miterlimit="10"/>
  <path d="m232.15,68.36V28.69h-4.87v-1.39c8.93,0,20.76-6.73,28.3-16.01h1.16l-.7,15.66h11.83v1.74h-11.95v43.5c0,4.64,2.55,6.73,5.8,6.73s5.8-1.97,7.31-4.18l.93.58c-3.02,6.61-9.86,10.56-19.02,10.56-12.53,0-18.79-6.84-18.79-17.52Z" fill="none" stroke="var(--text-stroke, #000)" stroke-miterlimit="10"/>
  <path d="m302.91,75.2c-1.04,5.57-6.15,10.67-14.38,10.67-9.16,0-16.82-6.38-16.82-16.12s6.73-16.12,18.33-18.1l12.76-2.09v-2.67c0-6.96-5.57-13.57-13.69-13.57-6.38,0-10.67,4.29-12.64,9.51l-1.04-.58c2.2-9.05,10.44-17.75,24.01-17.75,18.91,0,27.14,13.92,27.14,24.94v23.2c0,2.55.93,4.41,2.78,4.41,1.28,0,2.2-.81,2.78-1.74l.58.58c-1.51,4.52-7.54,9.98-15.2,9.98-6.84,0-13.22-3.48-14.62-10.67Zm-3.02.7c1.28,0,2.2-.81,2.9-2.32v-22.74l-1.51.81c-3.6,1.86-5.92,6.96-5.92,14.04s2.2,10.21,4.52,10.21Z" fill="none" stroke="var(--text-stroke, #000)" stroke-miterlimit="10"/>
  <path d="m367.63,85.87c-17.05,0-32.01-10.79-32.01-30.04,0-17.98,14.96-30.97,35.5-30.97,8.82,0,17.05,2.67,21.69,4.64v19.02h-1.16c-3.13-11.83-9.4-21.34-16.94-21.34s-12.3,10.67-12.3,25.52c0,19.02,8.12,25.98,15.89,25.98,4.52,0,10.44-2.55,15.2-9.86l1.16.81c-6.96,12.53-17.28,16.24-27.03,16.24Z" fill="none" stroke="var(--text-stroke, #000)" stroke-miterlimit="10"/>
  <path d="m401.85,68.36V28.69h-4.87v-1.39c8.93,0,20.76-6.73,28.3-16.01h1.16l-.7,15.66h11.83v1.74h-11.95v43.5c0,4.64,2.55,6.73,5.8,6.73s5.8-1.97,7.31-4.18l.93.58c-3.02,6.61-9.86,10.56-19.02,10.56-12.53,0-18.79-6.84-18.79-17.52Z" fill="none" stroke="var(--text-stroke, #000)" stroke-miterlimit="10"/>
</svg>