<svg id="thoughts-fill" xmlns="http://www.w3.org/2000/svg" viewBox="0 0 532.43 115.3">
  <path fill="var(--text-fill, #000)" d="m79.81,28.07h-1.16c-6.15-19.37-15.66-21.69-25.4-21.69h-.58v72.85c0,3.48,1.97,5.45,4.41,5.45v1.16H22.74v-1.16c2.44,0,4.41-1.97,4.41-5.45V6.38h-.58c-9.74,0-19.26,2.32-25.4,21.69H0L2.32,4.64h75.17l2.32,23.43Z"/>
  <path fill="var(--text-fill, #000)" d="m116,84.68v1.16h-33.29v-1.16c3.83,0,5.57-1.97,5.57-7.77V8.35l-5.1-2.55v-1.16L110.89,0h1.16v39.32c1.39-6.15,7.42-12.41,16.36-12.41,10.09,0,17.52,6.61,17.52,16.24v33.76c0,5.8,2.32,7.77,5.57,7.77v1.16h-32.6v-1.16c2.67,0,3.25-1.97,3.25-6.61v-35.73c0-4.18-2.09-6.15-4.64-6.15-2.78,0-4.76,2.67-5.45,6.5v35.38c0,4.64,1.04,6.61,3.94,6.61Z"/>
  <path fill="var(--text-fill, #000)" d="m187.57,26.91c19.6,0,33.17,12.41,33.17,30.51s-13.57,30.51-33.17,30.51-33.18-12.41-33.18-30.51,13.57-30.51,33.18-30.51Zm0,59.27c5.22,0,7.08-13.11,7.08-28.77s-1.97-28.77-7.08-28.77-7.08,13.11-7.08,28.77,1.97,28.77,7.08,28.77Z"/>
  <path fill="var(--text-fill, #000)" d="m259.6,30.97v-1.16l28.65-1.39h1.16v46.28c0,5.1,1.28,6.5,6.84,7.42v1.16l-29.35,3.71h-1.16v-11.83c-1.28,6.38-8.58,12.64-17.52,12.64-10.09,0-16.24-7.19-16.24-16.82v-33.64c0-5.22-2.44-6.38-6.03-6.38v-1.16l28.65-1.39h1.16v43.96c0,4.18,1.86,6.15,4.41,6.15,2.2,0,4.99-2.67,5.57-6.26l-.12-34.92c0-5.22-2.44-6.38-6.03-6.38Z"/>
  <path fill="var(--text-fill, #000)" d="m298,101.38c0-6.61,7.54-10.44,15.89-9.28-6.15-2.67-9.98-6.61-9.98-12.76s4.64-11.14,12.18-13.11c-9.4-3.02-15.2-9.74-15.2-18.68,0-12.53,11.14-20.65,27.72-20.65,5.22,0,9.74.7,13.57,2.09h21.81v9.98h-1.16l-16.7-8.24c6.61,3.6,10.21,9.4,10.21,16.82,0,12.41-10.44,20.53-27.72,20.53-3.71,0-7.08-.35-10.09-1.16-1.39.46-2.32,1.51-2.32,2.9,0,1.51.58,3.25,6.03,4.06l16.82,2.44c16.59,2.44,23.66,9.28,23.66,17.05,0,12.76-13.22,21.92-35.5,21.92-15.66,0-29.23-4.41-29.23-13.92Zm31.44,11.6c7.54,0,14.85-2.9,14.85-8.35,0-3.25-3.83-6.15-9.98-7.42l-11.83-2.55c-2.55-.58-4.99-1.16-7.19-1.97-1.39,1.39-2.78,3.94-2.78,7.42,0,8.24,8.12,12.88,16.94,12.88Zm-.81-46.63c3.6,0,4.99-9.05,4.99-18.79s-1.39-18.91-4.99-18.91-4.99,9.05-4.99,18.91,1.39,18.79,4.99,18.79Zm15.78-36.54h-.12.12Z"/>
  <path fill="var(--text-fill, #000)" d="m399.04,84.68v1.16h-33.29v-1.16c3.83,0,5.57-1.97,5.57-7.77V8.35l-5.1-2.55v-1.16l27.72-4.64h1.16v39.32c1.39-6.15,7.42-12.41,16.36-12.41,10.09,0,17.52,6.61,17.52,16.24v33.76c0,5.8,2.32,7.77,5.57,7.77v1.16h-32.59v-1.16c2.67,0,3.25-1.97,3.25-6.61v-35.73c0-4.18-2.09-6.15-4.64-6.15-2.78,0-4.76,2.67-5.45,6.5v35.38c0,4.64,1.04,6.61,3.94,6.61Z"/>
  <path fill="var(--text-fill, #000)" d="m441.14,70.41V30.74h-4.87v-1.39c8.93,0,20.76-6.73,28.3-16.01h1.16l-.7,15.66h11.83v1.74h-11.95v43.5c0,4.64,2.55,6.73,5.8,6.73s5.8-1.97,7.31-4.18l.93.58c-3.02,6.61-9.86,10.56-19.02,10.56-12.53,0-18.79-6.84-18.79-17.52Z"/>
  <path fill="var(--text-fill, #000)" d="m505.98,87.93c-7.77,0-16.36-1.39-22.85-4.18l-2.44-18.91h1.16c2.9,12.06,12.76,21.34,22.04,21.34,6.38,0,8.47-3.6,8.47-6.38,0-12.99-29.7-12.64-29.7-33.87,0-13.92,12.76-19.02,26.21-19.02,6.73,0,13.11,1.86,18.68,3.94l1.51,16.82h-1.16c-1.16-8.58-8.58-19.02-17.86-19.02-3.83,0-6.84,2.2-6.84,6.38,0,12.64,29.23,12.88,29.23,32.6,0,13.69-12.06,20.3-26.45,20.3Z"/>
</svg>