<svg id="work-fill" xmlns="http://www.w3.org/2000/svg" viewBox="0 0 314.13 87.93">
  <path fill="var(--text-fill, #000)" d="m115.18,20.65l-22.62,65.19h-15.43l-13.57-36.66-12.76,36.66h-15.43L10.32,18.1C6.61,8.12,5.1,5.8,0,5.8v-1.16h84.68v1.16c-6.5,0-8.82,1.97-5.33,11.95l17.52,50.69,13.92-40.25c4.87-14.04,0-22.39-8-22.39v-1.16h24.01v1.16c-3.13.46-8.58,6.15-11.6,14.85Zm-60.09,47.91l7.54-21.92-10.56-28.54c-3.71-9.98-4.87-12.3-10.32-12.3-3.48,0-7.66,1.97-4.18,11.95l17.52,50.81Z"/>
  <path fill="var(--text-fill, #000)" d="m150.1,26.91c19.6,0,33.18,12.41,33.18,30.51s-13.57,30.51-33.18,30.51-33.18-12.41-33.18-30.51,13.57-30.51,33.18-30.51Zm0,59.27c5.22,0,7.08-13.11,7.08-28.77s-1.97-28.77-7.08-28.77-7.08,13.11-7.08,28.77,1.97,28.77,7.08,28.77Z"/>
  <path fill="var(--text-fill, #000)" d="m192.91,76.91v-40.48l-5.1-3.36v-1.16l27.72-4.64h1.16v22.62c2.09-9.86,7.31-23.32,16.59-22.97,2.44.12,3.48.46,5.57,1.62v21.92h-1.16c-2.55-2.9-5.34-4.18-8.82-4.18-4.99,0-8.82,2.9-12.18,7.66v24.13c0,4.64,2.9,6.61,9.05,6.61v1.16h-38.4v-1.16c3.83,0,5.57-1.97,5.57-7.77Z"/>
  <path fill="var(--text-fill, #000)" d="m240.58,84.68c3.83,0,5.57-1.97,5.57-7.77V8.35l-5.1-2.55v-1.16l27.72-4.64h1.16v76.91c0,5.8,1.74,7.77,5.57,7.77v1.16h-34.92v-1.16Zm29.7-28.07l15.43-15.78c6.5-6.61.58-10.67-7.89-10.67v-1.16h32.48v1.16c-9.28,0-15.2,2.78-21.58,9.4l21,42.22c1.04,2.2,2.67,2.9,4.41,2.9v1.16h-30.28l-13.57-29.23Z"/>
</svg>