<?xml version="1.0" standalone="no"?>
<!DOCTYPE svg PUBLIC "-//W3C//DTD SVG 20010904//EN"
 "http://www.w3.org/TR/2001/REC-SVG-20010904/DTD/svg10.dtd">
<svg version="1.0" xmlns="http://www.w3.org/2000/svg"
 width="1044.000000pt" height="1044.000000pt" viewBox="0 0 1044.000000 1044.000000"
 preserveAspectRatio="xMidYMid meet">
<metadata>
Created by potrace 1.14, written by Peter Selinger 2001-2017
</metadata>
<g transform="translate(0.000000,1044.000000) scale(0.100000,-0.100000)"
fill="#000000" stroke="none">
<path d="M2656 9712 c-33 -4 -46 -15 -67 -57 -9 -16 -25 -47 -37 -67 -12 -21
-32 -55 -44 -75 -12 -21 -28 -49 -35 -63 -8 -14 -28 -47 -44 -75 -17 -27 -33
-58 -36 -67 -3 -10 -9 -18 -13 -18 -4 0 -10 -8 -14 -17 -3 -10 -16 -36 -29
-58 -62 -105 -71 -122 -85 -150 -9 -16 -18 -32 -21 -35 -6 -5 -24 -36 -58
-100 -10 -19 -21 -37 -24 -40 -3 -3 -14 -21 -24 -40 -9 -19 -25 -43 -34 -54
-9 -10 -15 -20 -14 -22 3 -4 -24 -54 -53 -98 -11 -17 -27 -46 -35 -64 -7 -17
-17 -32 -20 -32 -4 0 -12 -12 -18 -27 -6 -16 -22 -46 -36 -68 -14 -22 -30 -49
-36 -60 -5 -11 -15 -29 -22 -40 -7 -11 -32 -54 -55 -95 -24 -41 -47 -82 -52
-90 -18 -29 -96 -165 -103 -180 -4 -8 -18 -33 -32 -55 -14 -22 -30 -49 -36
-60 -5 -11 -15 -29 -22 -40 -7 -11 -30 -51 -52 -90 -21 -38 -44 -73 -49 -77
-7 -5 -7 -8 -1 -8 7 0 7 -3 0 -8 -6 -4 -19 -25 -30 -47 -11 -22 -23 -42 -26
-45 -4 -3 -17 -25 -30 -49 -13 -24 -29 -51 -34 -60 -6 -9 -30 -52 -54 -96 -25
-44 -48 -81 -53 -83 -4 -2 -8 -8 -8 -13 0 -4 -20 -43 -45 -85 -25 -41 -45 -77
-45 -79 0 -3 -25 -45 -55 -96 -30 -50 -55 -95 -55 -100 0 -5 -4 -9 -8 -9 -4 0
-13 -12 -19 -27 -12 -29 -54 -104 -63 -113 -4 -4 -24 -39 -54 -95 -6 -11 -13
-22 -16 -25 -6 -6 -32 -53 -61 -110 -12 -25 -25 -47 -29 -50 -10 -8 -90 -151
-90 -161 0 -5 -4 -9 -10 -9 -5 0 -10 -4 -10 -10 0 -5 -19 -42 -43 -82 -24 -40
-46 -80 -50 -88 -4 -8 -17 -31 -28 -50 -20 -33 -58 -99 -84 -145 -6 -11 -23
-39 -38 -62 -15 -24 -27 -45 -27 -47 0 -3 -24 -46 -54 -96 -30 -49 -52 -90
-50 -90 3 0 -2 -7 -10 -16 -9 -8 -16 -22 -16 -30 0 -8 -4 -14 -9 -14 -5 0 -13
-10 -17 -22 -3 -13 -12 -30 -19 -38 -7 -8 -25 -37 -39 -65 -15 -27 -31 -57
-37 -65 -5 -8 -33 -57 -63 -109 l-53 -94 24 -41 c13 -23 28 -48 33 -56 31 -50
90 -151 90 -154 0 -2 18 -34 40 -70 22 -36 40 -70 40 -76 0 -5 5 -10 10 -10 6
0 10 -5 10 -10 0 -6 63 -119 140 -251 77 -132 140 -245 140 -250 0 -5 5 -9 10
-9 6 0 10 -4 10 -10 0 -5 32 -64 71 -132 40 -67 80 -137 90 -155 11 -18 27
-48 38 -66 10 -17 40 -70 67 -117 27 -47 52 -86 56 -88 4 -2 8 -8 8 -14 0 -5
38 -75 85 -155 47 -80 85 -149 85 -153 0 -5 3 -10 8 -12 4 -2 15 -18 25 -35 9
-18 25 -48 35 -65 9 -18 19 -35 22 -38 3 -3 13 -20 23 -38 9 -17 25 -47 35
-64 9 -18 20 -34 24 -36 5 -2 8 -8 8 -13 0 -5 11 -26 23 -47 13 -20 35 -57 49
-82 82 -145 193 -336 197 -340 3 -3 14 -21 23 -40 10 -19 22 -42 28 -50 30
-48 121 -205 132 -230 7 -17 16 -30 19 -30 4 0 9 -8 12 -17 3 -10 20 -40 36
-68 17 -27 40 -68 52 -90 12 -22 27 -43 33 -47 6 -4 7 -8 2 -8 -5 0 -4 -6 2
-12 5 -7 19 -29 30 -48 71 -126 107 -185 114 -188 5 -2 6 -8 2 -13 -3 -5 0 -9
6 -9 6 0 8 -5 5 -10 -3 -5 -2 -10 2 -10 5 0 16 -17 26 -38 10 -20 26 -50 37
-67 11 -16 23 -37 27 -45 3 -8 9 -17 12 -20 3 -3 14 -21 23 -40 10 -19 22 -42
28 -50 15 -24 86 -144 94 -160 4 -8 12 -24 19 -35 7 -11 30 -51 51 -90 22 -38
47 -81 56 -95 9 -14 31 -50 47 -80 17 -30 53 -95 82 -143 28 -49 51 -93 51
-98 0 -5 5 -9 10 -9 6 0 10 -5 10 -11 0 -6 9 -23 19 -37 l19 -27 2597 0 2596
0 42 70 c23 39 49 84 57 100 8 17 21 36 28 43 6 7 12 20 12 28 0 8 3 14 8 14
4 0 12 10 18 23 23 49 59 112 67 115 4 2 7 7 7 12 0 5 27 55 61 112 34 57 74
126 89 153 16 28 58 101 94 164 36 62 66 115 66 116 0 2 18 33 41 70 22 37 50
84 61 104 11 20 73 126 136 236 64 110 121 210 126 222 6 13 14 23 19 23 4 0
7 5 7 10 0 6 34 68 75 139 41 70 75 133 75 139 0 7 4 12 8 12 4 0 25 30 45 67
21 38 42 75 47 83 22 35 155 268 174 305 12 22 24 42 27 45 3 3 14 21 24 40 9
19 24 43 33 53 8 9 11 17 6 17 -5 0 -4 4 1 8 9 6 23 29 59 97 6 11 13 22 16
25 3 3 10 14 16 25 52 95 187 330 193 335 3 3 17 28 31 55 14 28 33 59 42 69
10 10 15 23 12 27 -2 4 1 11 6 14 6 4 15 17 20 28 6 12 21 40 35 62 13 22 31
54 40 70 8 17 26 48 40 70 14 22 28 47 32 55 4 8 9 17 12 20 5 4 18 27 65 115
6 11 13 22 16 25 3 3 11 16 18 30 14 26 28 51 112 195 55 95 70 120 129 223
20 35 41 71 46 80 71 120 145 253 145 261 0 6 6 14 13 18 34 21 52 102 28 123
-3 3 -11 14 -17 25 -6 11 -82 144 -169 295 -87 151 -165 286 -172 300 -8 14
-25 43 -39 65 -13 22 -29 49 -34 60 -6 11 -21 38 -35 60 -14 22 -35 59 -46 83
-12 23 -25 42 -30 42 -5 0 -9 9 -9 20 0 11 -4 20 -10 20 -5 0 -10 4 -10 10 0
5 -18 39 -40 75 -22 36 -40 67 -40 69 0 2 -25 45 -55 95 -30 51 -55 94 -55 97
0 3 -16 29 -35 59 -19 30 -32 55 -29 55 2 0 0 6 -6 13 -17 19 -160 268 -160
278 0 5 -4 9 -8 9 -4 0 -13 12 -20 28 -6 15 -23 45 -36 67 -14 22 -29 49 -35
61 -8 18 -50 88 -89 149 -6 11 -15 27 -19 35 -4 8 -43 78 -88 155 -45 77 -107
185 -139 240 -31 55 -61 107 -66 115 -29 46 -100 172 -100 177 0 3 -8 17 -19
31 -10 15 -33 53 -49 84 -44 81 -56 102 -62 108 -3 3 -11 16 -18 29 -8 13 -23
40 -34 60 -12 20 -32 56 -46 81 -13 25 -31 52 -38 61 -8 9 -12 18 -9 21 3 3
-1 11 -10 18 -8 7 -15 19 -15 26 0 8 -3 14 -7 14 -5 0 -13 10 -19 23 -15 33
-58 111 -64 117 -5 5 -15 22 -58 99 -13 25 -34 58 -44 74 -11 15 -16 27 -11
27 4 0 4 4 -2 8 -12 9 -44 61 -52 85 -3 9 -9 17 -14 17 -5 0 -9 4 -9 10 0 5
-27 55 -60 111 -33 55 -60 105 -60 110 0 5 -4 9 -8 9 -4 0 -14 16 -21 35 -7
19 -17 35 -22 35 -5 0 -9 6 -9 14 0 7 -9 25 -21 40 -11 14 -17 26 -13 26 4 0
0 8 -8 18 -8 9 -53 83 -99 165 -49 87 -89 147 -99 148 -64 2 -5131 3 -5154 1z"/>
</g>
</svg>
