<svg width="41" height="41" viewBox="0 0 41 41" fill="none" xmlns="http://www.w3.org/2000/svg">
    <path d="M9.9246 4.98507C10.2418 3.80142 11.4584 3.09898 12.6421 3.41614L36.9316 9.92451C38.1153 10.2417 38.8177 11.4583 38.5006 12.642L31.9922 36.9315C31.675 38.1152 30.4584 38.8176 29.2747 38.5005L4.98516 31.9921C3.8015 31.6749 3.09907 30.4583 3.41623 29.2746L9.9246 4.98507Z" fill="var(--c-theme-001, currentColor)"/>
    <path d="M29.2746 3.41626C30.4582 3.0991 31.6749 3.80153 31.992 4.98519L38.5004 29.2748C38.8176 30.4584 38.1151 31.6751 36.9315 31.9922L12.6419 38.5006C11.4582 38.8177 10.2416 38.1153 9.92444 36.9317L3.41607 12.6421C3.09891 11.4584 3.80134 10.2418 4.985 9.92463L29.2746 3.41626Z" fill="var(--c-theme-001, currentColor)"/>
    <path d="M19.3896 1.60837C20.2561 0.741872 21.6609 0.741872 22.5274 1.60837L40.3086 19.3896C41.1751 20.2561 41.1751 21.6609 40.3086 22.5274L22.5274 40.3086C21.6609 41.1751 20.2561 41.1751 19.3896 40.3086L1.60837 22.5274C0.741872 21.6609 0.741872 20.2561 1.60837 19.3896L19.3896 1.60837Z" fill="var(--c-theme-001, currentColor)"/>
</svg>
