<svg width="8" height="8" viewBox="0 0 8 8" fill="none" xmlns="http://www.w3.org/2000/svg">
    <path fill-rule="evenodd" clip-rule="evenodd" d="M1.6 4C1.6 5.32548 2.67452 6.4 4 6.4C5.32548 6.4 6.4 5.32548 6.4 4C6.4 2.67452 5.32548 1.6 4 1.6C2.67452 1.6 1.6 2.67452 1.6 4ZM0 4C0 6.20914 1.79086 8 4 8C6.20914 8 8 6.20914 8 4C8 1.79086 6.20914 0 4 0C1.79086 0 0 1.79086 0 4Z" fill="var(--icon-fill, currentColor)"/>
    <path d="M4 6.4C2.67452 6.4 1.6 5.32548 1.6 4C1.6 2.67452 2.67452 1.6 4 1.6C5.32548 1.6 6.4 2.67452 6.4 4C6.4 5.32548 5.32548 6.4 4 6.4Z" fill="var(--icon-center, transparent)"/>
</svg>
