<svg width="1529" height="367" viewBox="0 0 1529 367" fill="none" xmlns="http://www.w3.org/2000/svg">
<path d="M45.8691 30.5835H244.639C259.923 30.5835 259.929 91.7502 259.929 122.333V336.417H62.6881C45.863 336.417 45.8691 275.25 45.8691 244.667C45.8691 214.083 45.863 152.917 61.1591 152.917H229.349" stroke="var(--icon-shade-001, currentColor)" stroke-width="40" stroke-linecap="square"/>
<path d="M1299.65 214.083H1467.84C1483.13 214.083 1483.13 152.917 1483.13 122.333C1483.13 91.7502 1483.13 30.5835 1467.84 30.5835H1284.36C1269.07 30.5835 1269.07 91.7502 1269.07 122.333V244.667C1269.07 275.25 1269.07 336.417 1284.36 336.417H1483.13" stroke="var(--icon-shade-001, currentColor)" stroke-width="40" stroke-linecap="square"/>
<path d="M657.469 152.917V336.417" stroke="var(--icon-shade-001, currentColor)" stroke-width="40" stroke-linecap="square"/>
<path d="M657.469 30.8892V31.8067" stroke="var(--icon-shade-001, currentColor)" stroke-width="40" stroke-linecap="square"/>
<path d="M565.73 336.417V122.333C565.73 91.7502 565.73 30.5835 550.44 30.5835H366.96C351.67 30.5835 351.67 91.7502 351.67 122.333V336.417" stroke="var(--icon-shade-001, currentColor)" stroke-width="40" stroke-linecap="square"/>
<path d="M1177.33 336.417V122.333C1177.33 91.7502 1177.33 30.5835 1162.04 30.5835H764.499C749.209 30.5835 749.209 91.7502 749.209 122.333V336.417" stroke="var(--icon-shade-001, currentColor)" stroke-width="40" stroke-linecap="square"/>
</svg>
