<svg width="1695" height="657" viewBox="0 0 1695 657" fill="none" xmlns="http://www.w3.org/2000/svg">
    <path d="M983.771 184.494C1006.77 164.094 1026.97 146.994 1053.82 141.044C1137.07 122.644 1225.07 163.744 1250.47 252.894C1268.97 317.894 1267.62 383.044 1231.37 442.744C1202.27 490.695 1158.92 517.895 1101.82 521.145C1070.92 522.895 1041.62 518.545 1014.82 501.795C1000.37 492.745 997.321 499.295 997.621 513.995C998.421 554.745 997.471 595.545 998.271 636.295C998.571 650.295 996.821 657.195 979.921 656.295C950.871 654.695 921.721 655.495 892.571 656.045C881.071 656.245 874.771 654.995 874.821 640.445C875.421 480.695 875.371 320.994 875.071 161.244C875.071 148.044 879.371 143.944 892.321 144.694C909.721 145.744 927.271 144.944 944.721 144.894C968.987 144.894 982.004 158.111 983.771 184.544V184.494ZM1137.22 329.694C1139.67 315.194 1132.47 300.394 1127.27 285.044C1117.82 257.094 1097.02 243.444 1069.32 241.544C1040.42 239.544 1016.47 250.294 1003.47 278.094C985.621 316.244 988.021 354.344 1009.57 389.644C1020.72 407.894 1039.17 423.344 1062.12 420.244C1117.72 412.744 1136.07 380.694 1137.17 329.794L1137.22 329.694ZM1001.62 492.545C1000.97 491.945 1000.37 491.395 999.821 490.895C999.271 491.995 998.521 493.045 998.271 494.245C998.171 494.645 999.271 495.345 999.771 495.895C1000.37 494.795 1000.97 493.745 1001.57 492.595L1001.62 492.545Z" fill="var(--icon-shade-001, currentColor)"/>
    <path d="M271.572 472.645C248.572 491.245 231.022 510.895 204.472 516.145C124.472 531.945 57.5218 506.945 23.2718 428.945C-10.5782 351.845 -8.92824 274.595 37.7718 201.195C65.9218 156.945 139.522 124.245 196.422 139.895C218.422 145.945 240.072 149.645 258.622 163.945C262.472 166.895 271.672 170.145 271.972 160.945C272.522 142.495 284.772 144.845 296.322 144.845C322.122 144.795 347.922 145.445 373.672 144.495C386.872 143.995 390.872 148.445 390.872 161.445C390.572 272.895 390.622 384.295 391.122 495.745C391.172 509.445 385.772 512.745 373.372 512.345C351.772 511.645 330.122 512.095 308.522 512.095C285.122 512.095 272.822 498.945 271.622 472.645H271.572ZM267.572 329.095C267.572 322.445 267.922 315.795 267.522 309.195C265.772 282.295 244.272 254.745 218.372 245.945C187.422 235.445 166.722 241.245 144.522 266.545C117.072 297.845 118.672 374.545 150.722 400.045C173.222 417.945 193.572 429.995 223.722 413.095C257.922 393.945 269.122 365.545 267.572 329.095Z" fill="var(--icon-shade-001, currentColor)"/>
    <path d="M1487.92 521.046C1389.72 524.946 1310.62 465.046 1286.42 384.496C1252.97 273.146 1325.27 156.496 1446.47 140.446C1507.92 132.296 1564.12 140.396 1615.17 175.896C1660.12 207.146 1684.22 249.296 1692.82 304.996C1711.87 428.346 1600.22 528.096 1487.92 521.046ZM1485.02 415.896C1530.17 424.346 1572.12 381.346 1570.72 326.196C1569.37 272.396 1529.32 238.546 1482.02 240.496C1427.72 242.746 1404.77 281.896 1403.02 330.046C1401.22 380.746 1441.47 423.246 1484.97 415.846L1485.02 415.896Z" fill="var(--icon-shade-001, currentColor)"/>
    <path d="M563.623 246.195C563.473 278.595 563.173 311.045 563.173 343.445C563.173 389.445 578.673 408.595 623.773 409.995C644.173 410.645 646.973 417.345 645.923 434.345C644.673 454.245 644.773 474.296 645.923 494.196C646.973 512.046 639.673 516.696 622.723 516.396C574.373 515.446 526.373 513.796 486.173 481.995C454.173 456.695 439.423 423.795 440.523 382.195C441.973 324.895 440.523 267.495 440.423 210.095C440.323 161.895 440.973 113.645 440.073 65.4452C439.823 50.7452 442.873 44.7452 459.023 45.4452C488.073 46.7952 517.223 46.3952 546.323 45.5452C559.023 45.1452 564.123 48.2952 563.423 61.9452C562.323 83.4952 564.023 105.195 562.823 126.745C562.023 141.445 567.773 144.645 581.323 145.095C600.673 145.695 631.623 135.545 637.023 150.195C646.223 175.145 640.423 205.695 640.473 233.895C640.473 242.945 632.673 240.745 627.373 240.895C607.423 241.395 587.523 241.495 567.573 241.745C564.223 241.395 562.123 242.145 563.623 246.145V246.195Z" fill="var(--icon-shade-001, currentColor)"/>
    <path d="M818.97 328.246C818.97 383.096 818.52 437.896 819.27 492.747C819.47 507.347 816.57 513.397 800.27 512.597C771.27 511.147 742.12 511.597 713.07 512.497C699.92 512.897 696.17 508.697 696.22 495.647C696.62 384.346 696.57 272.996 696.12 161.696C696.07 149.096 698.92 144.096 712.67 144.596C741.72 145.696 770.87 145.746 799.87 144.596C815.02 143.996 819.62 148.146 819.32 163.796C818.27 218.596 818.92 273.446 818.92 328.296H819.02L818.97 328.246Z" fill="var(--icon-shade-001, currentColor)"/>
    <path d="M756.82 97.3953C717.154 97.3953 697.32 77.9786 697.32 39.1452C697.32 13.8119 709.62 1.1452 734.22 1.1452C756.67 1.1452 779.17 1.9452 801.57 0.845196C815.17 0.195195 818.52 5.0952 817.92 17.9452C816.87 38.6952 816.62 59.5452 817.92 80.2453C818.87 95.4453 812.57 98.5453 799.22 97.5953C785.17 96.5953 770.97 97.3953 756.82 97.3953Z" fill="var(--icon-shade-001, currentColor)"/>
</svg>
