<svg width="1912" height="478" viewBox="0 0 1912 478" fill="none" xmlns="http://www.w3.org/2000/svg">
    <path d="M662.139 288.212C630.634 288.212 613.252 268.114 617.598 239.326C622.486 209.994 646.386 190.439 677.348 190.439C693.643 190.439 708.309 198.044 717 209.451L747.418 184.464C731.123 165.996 707.766 156.762 682.78 156.762C631.72 156.762 587.18 190.983 579.575 239.326C571.97 288.212 604.561 321.889 656.164 321.889C682.236 321.889 708.309 311.026 731.123 293.101L709.395 268.114C693.643 282.237 677.348 288.212 662.139 288.212ZM866.375 158.392C866.375 158.392 859.857 157.305 859.314 157.305C852.252 156.219 844.648 156.762 837.586 157.305C831.068 157.848 824.55 158.935 818.032 161.108C812.6 162.737 806.625 164.91 801.736 168.169L802.823 160.564H765.886L740.9 318.087H777.836L792.502 226.289C793.045 220.858 795.218 215.969 797.934 211.623C800.65 207.278 804.452 203.476 808.798 200.76C813.143 197.501 817.489 195.328 822.377 193.698C827.266 192.069 832.155 190.983 837.586 190.439C844.648 189.896 852.252 190.439 859.314 192.069H859.857C860.943 192.069 866.375 158.392 866.375 158.392ZM995.652 170.342C985.332 161.651 969.58 156.762 951.111 156.762C904.941 156.762 863.116 189.896 854.968 238.783C847.364 287.669 879.411 320.803 923.952 320.803C944.05 320.803 960.889 318.087 975.011 308.31L973.925 317.001H1007.6L1032.05 160.564H997.282L995.652 170.342ZM988.048 238.783C983.159 268.658 960.889 289.298 932.1 289.298C902.768 289.298 885.93 267.571 890.818 238.239C895.707 208.908 919.064 188.267 947.852 188.267C976.641 188.81 992.393 208.908 988.048 238.783ZM1202.6 160.564L1209.67 116.023L1167.3 146.442L1165.13 161.108H1117.33L1122.21 131.233C1124.93 117.11 1140.14 117.653 1140.14 117.653H1158.06L1163.5 85.0621H1142.85H1137.97C1087.45 85.0621 1085.82 124.171 1085.82 124.171L1082.56 142.639L1079.85 161.108H1076.59L1035.3 193.698H1074.41L1049.43 352.851H1087.45L1112.44 193.155H1160.24L1140.68 318.087H1178.16L1197.72 193.155H1244.43L1249.86 160.564H1202.6ZM1303.09 239.326C1310.7 190.983 1354.7 156.762 1406.3 156.762C1431.28 156.762 1454.64 166.539 1470.94 184.464L1440.52 209.451C1431.83 198.044 1417.16 190.439 1400.87 190.439C1369.9 190.439 1346 210.537 1341.12 239.326C1336.77 268.114 1354.15 288.212 1385.66 288.212C1400.87 288.212 1417.16 282.237 1432.91 268.114L1454.64 293.101C1431.83 311.569 1405.75 321.889 1379.68 321.889C1328.08 321.889 1295.49 288.212 1303.09 239.326ZM1743.07 222.487L1728.4 318.087H1691.47L1706.13 225.203C1709.94 203.476 1697.99 190.439 1676.8 190.439C1654.53 190.439 1632.26 204.019 1629 226.289L1614.34 318.087H1577.4L1592.07 225.203C1595.33 204.019 1582.83 190.983 1562.73 190.439C1542.09 191.526 1518.19 204.562 1514.93 226.289L1500.27 318.087H1463.33L1488.32 160.564H1525.25L1524.17 168.169C1536.66 160.564 1550.78 157.305 1568.71 156.762H1571.97C1594.78 156.762 1613.25 165.996 1623.03 181.748C1638.24 165.996 1661.59 156.762 1684.95 156.762C1725.15 156.762 1749.59 183.378 1743.07 222.487ZM1741.44 299.076L1764.25 270.83C1776.75 280.608 1800.65 288.212 1820.75 288.212C1839.21 288.212 1857.68 284.41 1859.85 271.917C1861.48 262.139 1843.56 258.88 1823.46 255.621C1781.64 248.56 1760.45 239.869 1764.8 208.364C1771.32 168.712 1812.05 157.305 1845.73 157.305C1869.63 157.305 1894.62 165.453 1911.46 176.86L1888.64 205.105C1875.61 196.958 1858.77 190.983 1839.76 190.983C1817.49 190.983 1804.45 197.501 1802.82 207.821C1801.73 214.883 1807.71 217.598 1833.78 221.944C1871.8 228.462 1903.31 234.437 1897.33 270.83C1892.45 303.964 1858.77 322.433 1814.77 322.433C1790.33 321.889 1758.82 313.198 1741.44 299.076ZM415.534 5.21436H48.8864C21.7273 5.21436 0 26.9416 0 54.1007V420.748C0 447.908 21.7273 469.635 48.8864 469.635H415.534C442.15 469.635 464.42 447.908 464.42 420.748V54.1007C464.42 26.9416 442.693 5.21436 415.534 5.21436ZM231.395 288.212C246.605 288.212 262.9 282.237 278.652 268.114L300.38 293.101C277.566 311.569 251.493 321.889 225.42 321.889C173.818 321.889 141.227 287.669 148.832 239.326C156.436 190.983 200.434 156.762 252.036 156.762C277.023 156.762 300.38 166.539 316.675 184.464L286.257 209.451C277.566 198.044 262.9 190.439 246.605 190.439C215.643 190.439 191.743 210.537 186.855 239.326C182.509 268.114 199.891 288.212 231.395 288.212Z" fill="var(--icon-shade-001, currentColor)"/>
</svg>
