<svg width="932" height="932" viewBox="0 0 932 932" fill="none" xmlns="http://www.w3.org/2000/svg">
<path fill-rule="evenodd" clip-rule="evenodd" d="M932 466C932 723.365 723.365 932 466 932C208.635 932 0 723.365 0 466C0 208.635 208.635 0 466 0C723.365 0 932 208.635 932 466ZM99.8555 472.657C99.8555 562.528 136.47 655.728 206.37 725.628C276.27 795.528 369.47 828.814 462.67 832.143L99.8555 472.657ZM109.841 386.114L545.884 822.157C708.984 785.543 832.141 639.086 832.141 466H599.141V532.571H758.913C735.613 632.428 662.384 715.643 565.855 748.928L183.07 366.143C226.341 249.643 336.184 166.428 465.998 166.428C565.855 166.428 655.727 216.357 712.313 292.914L762.241 249.643C695.67 159.771 589.155 99.8569 465.998 99.8569C292.913 99.8569 146.455 223.014 109.841 386.114Z" fill="var(--icon-shade-001, currentColor)"/>
</svg>
