<svg width="1600" height="1600" viewBox="0 0 1600 1600" fill="none" xmlns="http://www.w3.org/2000/svg">
<path d="M172.369 1177.44L229.871 1210.64L870.471 101.121L812.969 67.9207L172.369 1177.44Z" fill="var(--icon-shade-001, currentColor)"/>
<path d="M1440.4 1088.8H159.203V1155.2H1440.4V1088.8Z" fill="var(--icon-shade-001, currentColor)"/>
<path d="M184.564 1126.1L825.404 1496.1L858.604 1438.6L217.764 1068.6L184.564 1126.1Z" fill="var(--icon-shade-001, currentColor)"/>
<path d="M741.26 161.787L1382.1 531.787L1415.3 474.285L774.46 104.285L741.26 161.787Z" fill="var(--icon-shade-001, currentColor)"/>
<path d="M184.725 474.032L217.925 531.534L858.765 161.534L825.565 104.032L184.725 474.032Z" fill="var(--icon-shade-001, currentColor)"/>
<path d="M729.672 101.133L1370.27 1210.65L1427.77 1177.45L787.175 67.9326L729.672 101.133Z" fill="var(--icon-shade-001, currentColor)"/>
<path d="M276.4 430H210V1170H276.4V430Z" fill="var(--icon-shade-001, currentColor)"/>
<path d="M1390 430H1323.6V1170H1390V430Z" fill="var(--icon-shade-001, currentColor)"/>
<path d="M785.086 1417.77L814.086 1468L1371.44 1146.2L1342.44 1095.97L785.086 1417.77Z" fill="var(--icon-shade-001, currentColor)"/>
<path d="M1478 1191.6C1439.6 1258.4 1354 1281.2 1287.2 1242.8C1220.4 1204.4 1197.6 1118.8 1236 1052C1274.4 985.2 1360 962.4 1426.8 1000.8C1494 1039.6 1516.8 1124.8 1478 1191.6Z" fill="var(--icon-shade-001, currentColor)"/>
<path d="M363.601 548C325.201 614.8 239.601 637.6 172.801 599.2C106.001 560.8 83.2012 475.2 121.601 408.4C160.001 341.6 245.601 318.8 312.401 357.2C379.201 396 402.001 481.2 363.601 548Z" fill="var(--icon-shade-001, currentColor)"/>
<path d="M122 1191.6C83.5996 1124.8 106.4 1039.6 173.2 1000.8C240 962.4 325.2 985.2 364 1052C402.4 1118.8 379.6 1204 312.8 1242.8C245.6 1281.2 160.4 1258.4 122 1191.6Z" fill="var(--icon-shade-001, currentColor)"/>
<path d="M1236.4 548C1198 481.2 1220.8 396 1287.6 357.2C1354.4 318.8 1439.6 341.6 1478.4 408.4C1516.8 475.2 1494 560.4 1427.2 599.2C1360.4 637.6 1274.8 614.8 1236.4 548Z" fill="var(--icon-shade-001, currentColor)"/>
<path d="M799.998 1583.2C722.798 1583.2 660.398 1520.8 660.398 1443.6C660.398 1366.4 722.798 1304 799.998 1304C877.198 1304 939.598 1366.4 939.598 1443.6C939.598 1520.4 877.198 1583.2 799.998 1583.2Z" fill="var(--icon-shade-001, currentColor)"/>
<path d="M799.998 296C722.798 296 660.398 233.6 660.398 156.4C660.398 79.2 722.798 16.8 799.998 16.8C877.198 16.8 939.598 79.2 939.598 156.4C939.598 233.6 877.198 296 799.998 296Z" fill="var(--icon-shade-001, currentColor)"/>
</svg>
