<svg width="763" height="275" viewBox="0 0 763 275" fill="none" xmlns="http://www.w3.org/2000/svg">
<path d="M288.095 0L137.34 274.758H0L117.715 60.2163C135.963 26.9598 181.5 0 219.425 0H288.095Z" fill="var(--icon-shade-001, currentColor)"/>
<path d="M624.891 68.6894C624.891 30.7533 655.635 0 693.561 0C731.487 0 762.231 30.7533 762.231 68.6894C762.231 106.626 731.487 137.379 693.561 137.379C655.635 137.379 624.891 106.626 624.891 68.6894Z" fill="var(--icon-shade-001, currentColor)"/>
<path d="M313.847 0H451.187L300.432 274.758H163.092L313.847 0Z" fill="var(--icon-shade-001, currentColor)"/>
<path d="M476.056 0H613.397L495.681 214.541C477.433 247.798 431.896 274.758 393.971 274.758H325.301L476.056 0Z" fill="var(--icon-shade-001, currentColor)"/>
</svg>
