<svg width="1227" height="818" viewBox="0 0 1227 818" fill="none" xmlns="http://www.w3.org/2000/svg">
<path d="M688.359 818H1144.48C1158.98 818 1173.2 814.221 1185.75 807.043C1198.27 799.886 1208.69 789.559 1215.96 777.1C1223.19 764.683 1227 750.568 1227 736.196C1226.99 721.825 1223.17 707.714 1215.92 695.304L909.6 169.445C902.334 156.988 891.919 146.662 879.399 139.506C866.835 132.322 852.612 128.545 838.139 128.549C823.656 128.549 809.427 132.332 796.883 139.51C784.363 146.665 773.947 156.991 766.683 169.449L688.359 303.993L535.217 40.8918C527.949 28.433 517.529 18.1073 505.005 10.953C492.438 3.7715 478.214 -0.00405506 463.741 3.26826e-06C449.254 3.26826e-06 435.021 3.77916 422.472 10.9571C409.949 18.111 399.529 28.435 392.26 40.8918L11.0798 695.3C3.83232 707.711 0.00887687 721.824 1.31375e-05 736.196C-0.00816686 750.556 3.80371 764.662 11.043 777.1C18.309 789.559 28.7262 799.886 41.2477 807.043C53.8149 814.227 68.0403 818.004 82.5158 818H368.832C482.276 818 565.937 768.613 623.5 672.261L763.259 432.374L838.119 303.993L1062.78 689.619H763.259L688.359 818ZM364.165 689.488L164.353 689.443L463.871 175.306L613.324 432.374L513.258 604.195C475.029 666.711 431.601 689.488 364.165 689.488Z" fill="var(--icon-shade-001, currentColor)"/>
</svg>
