<svg width="617" height="923" viewBox="0 0 617 923" fill="none" xmlns="http://www.w3.org/2000/svg">
<path fill-rule="evenodd" clip-rule="evenodd" d="M281.634 448.241C344.051 388.747 325 315.159 268.464 225.987C211.927 136.816 98.1269 105.086 76.898 125.321C55.6691 145.557 50.9708 290.237 107.507 379.408C164.044 468.58 219.218 507.735 281.634 448.241Z" fill="var(--icon-shade-002, currentColor)"/>
<path fill-rule="evenodd" clip-rule="evenodd" d="M335.606 456.468C381.789 529.309 443.525 502.68 519.938 429.844C596.352 357.008 628.031 217.481 612.323 192.706C596.615 167.931 477.257 169.167 400.844 242.003C324.431 314.839 289.423 383.626 335.606 456.468Z" fill="var(--icon-shade-002, currentColor)"/>
<path fill-rule="evenodd" clip-rule="evenodd" d="M310.361 416.396C387.046 425.819 417.2 354.952 431.255 240.397C445.31 125.843 387.341 4.7635 361.259 1.55865C335.177 -1.6462 247.558 101.544 233.503 216.098C219.448 330.653 233.676 406.973 310.361 416.396Z" fill="var(--icon-shade-003, currentColor)"/>
<path fill-rule="evenodd" clip-rule="evenodd" d="M291.041 923C451.807 923 582.185 876.279 582.185 664.395C582.185 452.512 451.807 278.642 291.041 278.642C130.275 278.642 0 452.512 0 664.395C0 876.279 130.275 923 291.041 923Z" fill="var(--icon-shade-004, currentColor)"/>
<path d="M438.09 621.138C461.056 621.138 479.674 612.475 479.674 601.788C479.674 591.102 461.056 582.438 438.09 582.438C415.123 582.438 396.505 591.102 396.505 601.788C396.505 612.475 415.123 621.138 438.09 621.138Z" fill="var(--icon-shade-003, currentColor)"/>
<path d="M130.134 609.384C152.929 612.184 172.464 605.856 173.765 595.248C175.067 584.641 157.643 573.773 134.848 570.972C112.053 568.172 92.5179 574.501 91.2161 585.108C89.9143 595.715 107.338 606.584 130.134 609.384Z" fill="var(--icon-shade-003, currentColor)"/>
<path d="M317.682 594.935C305.166 605.111 290.71 609.262 274.314 607.388C257.917 605.514 245.764 598.706 237.854 586.964" stroke="var(--icon-shade-001, currentColor)" stroke-width="6" stroke-linecap="round" stroke-linejoin="round"/>
<path fill-rule="evenodd" clip-rule="evenodd" d="M156.634 494.237C168.112 493.836 178.664 498.126 186.448 505.387C194.232 512.647 199.246 522.879 199.647 534.36C200.048 545.842 195.758 556.399 188.5 564.186C181.241 571.973 171.013 576.989 159.536 577.391C148.059 577.792 137.507 573.501 129.724 566.24C121.942 558.979 116.928 548.747 116.527 537.265C116.126 525.784 120.415 515.227 127.673 507.441C134.931 499.655 145.158 494.638 156.634 494.237Z" fill="var(--icon-shade-001, currentColor)"/>
<path fill-rule="evenodd" clip-rule="evenodd" d="M158.817 529.011C158.556 521.536 152.284 515.686 144.815 515.947C137.341 516.209 131.494 522.482 131.755 529.957C132.016 537.432 138.286 543.282 145.759 543.021C153.229 542.757 159.078 536.486 158.817 529.011Z" fill="white"/>
<path fill-rule="evenodd" clip-rule="evenodd" d="M408.6 504.796C420.078 504.395 430.63 508.685 438.413 515.946C446.196 523.206 451.21 533.438 451.611 544.919C452.011 556.402 447.723 566.959 440.465 574.745C433.207 582.532 422.979 587.548 411.502 587.95C400.025 588.351 389.472 584.06 381.689 576.799C373.906 569.538 368.892 559.306 368.491 547.824C368.09 536.343 372.379 525.787 379.638 518C386.896 510.214 397.124 505.197 408.6 504.796Z" fill="var(--icon-shade-001, currentColor)"/>
<path d="M193.848 534.562C194.537 554.323 179.085 570.898 159.332 571.589C139.582 572.279 123.015 556.823 122.325 537.063C121.636 517.305 137.087 500.729 156.837 500.039C176.589 499.348 193.159 514.804 193.848 534.562ZM205.446 534.157C204.534 507.99 182.59 487.522 156.432 488.436C130.276 489.351 109.815 511.302 110.727 537.468C111.64 563.636 133.581 584.106 159.737 583.191C185.895 582.277 206.359 560.325 205.446 534.157Z" fill="white" stroke="white" stroke-width="3"/>
<path d="M445.812 545.122C446.501 564.882 431.051 581.457 411.298 582.148C391.548 582.838 374.979 567.383 374.289 547.622C373.6 527.864 389.053 511.289 408.803 510.598C428.555 509.907 445.123 525.363 445.812 545.122ZM457.41 544.716C456.498 518.55 434.556 498.081 408.398 498.995C382.242 499.91 361.778 521.862 362.691 548.028C363.604 574.195 385.547 594.665 411.703 593.751C437.861 592.836 458.323 570.884 457.41 544.716Z" fill="white" stroke="white" stroke-width="3"/>
<path fill-rule="evenodd" clip-rule="evenodd" d="M410.782 539.57C410.521 532.095 404.251 526.246 396.778 526.507C389.306 526.768 383.458 533.041 383.719 540.517C383.98 547.992 390.25 553.841 397.723 553.58C405.195 553.319 411.042 547.045 410.782 539.57Z" fill="white"/>
<path d="M70.5977 684.026L213.726 833.022" stroke="var(--icon-shade-003, currentColor)" stroke-width="11" stroke-linecap="round"/>
<path d="M194.384 701.441L103.479 798.192" stroke="var(--icon-shade-003, currentColor)" stroke-width="11" stroke-linecap="round"/>
<path d="M509.654 684.026L366.526 833.022" stroke="var(--icon-shade-003, currentColor)" stroke-width="11" stroke-linecap="round"/>
<path d="M385.867 701.441L476.773 798.192" stroke="var(--icon-shade-003, currentColor)" stroke-width="11" stroke-linecap="round"/>
<path d="M349.118 355.074L254.344 449.89" stroke="var(--icon-shade-003, currentColor)" stroke-width="11" stroke-linecap="round"/>
<path d="M329.776 449.89L235.002 355.074" stroke="var(--icon-shade-003, currentColor)" stroke-width="11" stroke-linecap="round"/>
</svg>
