<svg width="989" height="880" viewBox="0 0 989 880" fill="none" xmlns="http://www.w3.org/2000/svg">
<path d="M494.466 528.108C543.15 528.108 582.616 488.642 582.616 439.958C582.616 391.275 543.15 351.809 494.466 351.809C445.783 351.809 406.316 391.275 406.316 439.958C406.316 488.642 445.783 528.108 494.466 528.108Z" fill="var(--icon-shade-001, currentColor)"/>
<path d="M494.5 620.563C755.731 620.563 967.5 539.706 967.5 439.964C967.5 340.222 755.731 259.365 494.5 259.365C233.269 259.365 21.5 340.222 21.5 439.964C21.5 539.706 233.269 620.563 494.5 620.563Z" stroke="var(--icon-shade-001, currentColor)" stroke-width="42.9999"/>
<path d="M338.071 530.263C468.686 756.494 644.595 899.462 730.975 849.591C817.355 799.72 781.494 575.895 650.879 349.664C520.264 123.432 344.354 -19.5361 257.975 30.335C171.595 80.2061 207.455 304.031 338.071 530.263Z" stroke="var(--icon-shade-001, currentColor)" stroke-width="42.9999"/>
<path d="M338.07 349.662C207.455 575.893 171.595 799.718 257.975 849.589C344.354 899.461 520.263 756.492 650.879 530.261C781.494 304.03 817.354 80.2043 730.975 30.3332C644.595 -19.5378 468.686 123.43 338.07 349.662Z" stroke="var(--icon-shade-001, currentColor)" stroke-width="42.9999"/>
</svg>
