<svg width="389" height="902" viewBox="0 0 389 902" fill="none" xmlns="http://www.w3.org/2000/svg">
<path d="M98.3004 393C105 391.6 111.9 390.6 118.8 390L172.4 384.9L99.6004 305.1C77.7004 281 65.6004 249.8 65.6004 217.2H5.40039C5.40039 264.8 23.1004 310.5 55.2004 345.7L98.3004 393Z" fill="var(--icon-shade-001, currentColor)"/>
<path d="M286.3 509.9C280.9 510.9 275.4 511.6 269.9 512.2L211.9 517.7L284.5 597.3C306.4 621.4 318.5 652.6 318.5 685.2H378.8C378.8 637.6 361.1 592 329 556.7L286.3 509.9Z" fill="var(--icon-shade-001, currentColor)"/>
<path d="M386 333C376.1 283.8 337.5 248 287.7 241.7L278.5 240.5C247.4 236.6 223.9 210 223.9 178.7V146.6C251.5 135.1 270.9 107.9 270.9 76.2C270.9 34.1 236.8 0 194.7 0C152.6 0 118.5 34.1 118.5 76.2C118.5 107.2 137.1 133.9 163.7 145.8V178.7C163.7 240.4 209.8 292.7 271 300.3L280.2 301.5C308.9 305.1 323.2 326.3 327 344.9C330.8 363.5 325.9 388.6 300.8 403.1C288.5 410.2 275.2 414.5 261.1 415.8L122.8 428.8C100 431 78.4004 437.9 58.6004 449.3C15.1004 474.5 -6.59957 522.5 3.40043 571.7C13.3004 620.9 51.9004 656.7 101.7 663L110.9 664.2C142 668.1 165.5 694.7 165.5 726V755.2C138 766.7 118.7 793.9 118.7 825.5C118.7 867.6 152.8 901.7 194.9 901.7C237 901.7 271.1 867.6 271.1 825.5C271.1 794.4 252.4 767.6 225.7 755.8V726C225.7 664.3 179.6 612 118.4 604.4L109.2 603.2C80.5004 599.6 66.2004 578.4 62.4004 559.8C58.6004 541.2 63.5004 516.1 88.6004 501.6C100.9 494.5 114.2 490.2 128.3 488.9L266.6 475.9C289.4 473.7 311 466.8 330.8 455.4C374.3 430.2 395.9 382.2 386 333Z" fill="var(--icon-shade-001, currentColor)"/>
</svg>
