<svg width="1797" height="377" viewBox="0 0 1797 377" fill="none" xmlns="http://www.w3.org/2000/svg">
<path opacity="0.7" d="M1337.98 136.964V359.912H1264.8V175.027L1337.98 136.964Z" fill="var(--icon-shade-001, currentColor)"/>
<path opacity="0.7" d="M358.563 365.519L529.585 275.983L508.502 221.301L395.909 273.875L358.563 365.519Z" fill="var(--icon-shade-001, currentColor)"/>
<path opacity="0.5" d="M1264.8 174.837L1450.34 79.7659L1418.99 26.6831L1264.8 102.132V174.837Z" fill="var(--icon-shade-001, currentColor)"/>
<path opacity="0.7" d="M742.255 119.309V359.912H672.467V17.2588L742.255 119.309Z" fill="var(--icon-shade-001, currentColor)"/>
<path opacity="0.5" d="M464.309 106.009L358.563 365.519L304.174 318.639L430.173 17.2588L464.309 106.009Z" fill="var(--icon-shade-001, currentColor)"/>
<path d="M430.173 17.2588H502.265L635.601 359.912H561.809L430.173 17.2588Z" fill="var(--icon-shade-001, currentColor)"/>
<path d="M753.049 17.2588L906.756 251.36V359.912L672.467 17.2588H753.049Z" fill="var(--icon-shade-001, currentColor)"/>
<path d="M1111.03 17.2588H1038.39V359.972H1111.03V17.2588Z" fill="var(--icon-shade-001, currentColor)"/>
<path d="M1264.8 79.7654H1152.99V17.2588H1413.41L1450.34 79.7654H1337.98H1264.8Z" fill="var(--icon-shade-001, currentColor)"/>
<path opacity="0.5" d="M1664.8 229.89V359.912H1592.71V229.89" fill="var(--icon-shade-001, currentColor)"/>
<path d="M1592.71 229.888L1714.7 17.2588H1791.28L1664.8 229.888H1592.71Z" fill="var(--icon-shade-001, currentColor)"/>
<path opacity="0.7" d="M1592.71 229.888L1467.32 17.2588H1546.2L1631.15 162.968L1592.71 229.888Z" fill="var(--icon-shade-001, currentColor)"/>
<path d="M33.5654 56.8032C33.5654 104.518 63.5186 132.909 123.486 147.879L187.03 162.372C243.783 175.195 278.345 207.045 278.345 258.935C278.786 281.542 271.314 303.61 257.183 321.442C257.183 269.671 229.959 241.698 164.292 224.879L101.9 210.923C51.9374 199.709 13.3742 173.526 13.3742 117.163C13.1114 95.3967 20.2145 74.1627 33.5654 56.8032Z" fill="var(--icon-shade-001, currentColor)"/>
<path opacity="0.7" d="M906.756 233.766V17.2588H976.545V359.912H906.756V233.766Z" fill="var(--icon-shade-001, currentColor)"/>
<path opacity="0.7" d="M218.136 246.231C245.238 263.288 257.122 287.146 257.122 321.382C234.689 349.652 195.276 365.519 148.952 365.519C70.9768 365.519 16.4061 327.764 4.2793 262.156H79.1623C88.803 292.276 114.33 306.232 148.406 306.232C190.002 306.232 217.65 284.402 218.196 246.111" fill="var(--icon-shade-001, currentColor)"/>
<path opacity="0.7" d="M72.4906 127.541C60.114 120.305 49.9601 109.909 43.1064 97.4542C36.2528 84.9998 32.955 70.9525 33.5634 56.8032C55.2097 28.7706 92.8636 11.6528 138.763 11.6528C218.194 11.6528 264.154 52.9262 275.492 111.019H203.46C195.517 88.1159 175.629 70.2826 139.37 70.2826C100.625 70.2826 74.1883 92.4699 72.6723 127.541" fill="var(--icon-shade-001, currentColor)"/>
</svg>
