<svg width="1061" height="796" viewBox="0 0 1061 796" fill="none" xmlns="http://www.w3.org/2000/svg">
<path d="M913.604 457.589C876.589 457.783 844.419 466.701 817.481 479.885C807.598 460.304 797.714 442.855 795.97 430.059C794.032 415.131 791.707 406.019 794.032 388.183C796.358 370.347 806.823 344.95 806.629 343.011C806.435 341.072 804.303 331.96 782.986 331.766C761.668 331.572 743.258 335.838 741.126 341.46C738.994 347.082 734.924 359.878 732.211 373.061C728.529 392.448 689.576 461.661 667.29 497.915C660.119 483.762 653.918 471.354 652.561 461.467C650.623 446.539 648.298 437.427 650.623 419.59C652.949 401.754 663.414 376.357 663.22 374.418C663.026 372.479 660.894 363.367 639.577 363.174C618.259 362.98 599.849 367.245 597.717 372.867C595.585 378.49 593.26 391.673 588.802 404.468C584.345 417.264 532.602 532.812 519.036 562.668C512.059 577.984 506.052 590.198 501.788 598.534C501.788 598.534 501.594 599.116 501.013 600.085C497.331 607.259 495.199 611.136 495.199 611.136C495.199 611.136 495.199 611.136 495.199 611.33C492.292 616.564 489.191 621.411 487.641 621.411C486.478 621.411 484.346 607.452 488.029 588.453C495.78 548.321 514.191 485.895 513.997 483.762C513.997 482.599 517.485 471.742 501.982 466.12C486.866 460.497 481.439 469.803 480.083 469.803C478.726 469.803 477.757 473.099 477.757 473.099C477.757 473.099 494.618 402.917 445.587 402.917C414.968 402.917 372.72 436.457 351.79 466.701C338.612 473.875 310.512 489.19 280.473 505.67C269.039 512.067 257.218 518.465 246.171 524.475C245.396 523.7 244.621 522.73 243.846 521.955C184.544 458.559 74.856 413.774 79.5071 328.664C81.2512 297.645 91.91 216.219 290.163 117.344C453.339 36.8868 583.182 59.1821 605.663 108.62C637.833 179.189 536.09 310.247 367.488 329.246C303.147 336.419 269.427 311.604 260.9 302.298C251.985 292.604 250.629 292.023 247.334 293.961C241.908 296.869 245.396 305.594 247.334 310.634C252.373 323.818 273.109 347.082 308.186 358.521C339.193 368.602 414.58 374.224 505.858 338.94C607.988 299.39 687.832 189.464 664.383 97.3749C640.933 3.92858 485.897 -26.8971 339.193 25.2545C251.985 56.274 157.413 105.13 89.3907 168.72C8.57782 244.33 -4.21269 310.053 1.01979 337.582C19.818 435.294 154.506 498.884 208.381 545.995C205.668 547.546 203.149 548.903 201.017 550.066C174.079 563.443 71.3677 617.146 45.7866 673.951C16.7173 738.316 50.4377 784.458 72.7242 790.662C141.909 809.855 213.032 775.346 251.21 718.347C289.388 661.349 284.737 587.29 267.101 553.362C266.908 552.974 266.714 552.587 266.326 552.199C273.303 548.128 280.473 543.862 287.45 539.791C301.209 531.648 314.775 524.087 326.403 517.884C319.814 535.914 314.969 557.433 312.643 588.453C309.736 624.901 324.659 672.206 344.232 690.817C352.953 698.96 363.224 699.154 369.813 699.154C392.681 699.154 402.952 680.154 414.386 657.665C428.339 630.135 440.936 598.147 440.936 598.147C440.936 598.147 425.239 684.614 467.874 684.614C483.377 684.614 499.075 664.451 506.052 654.176C506.052 654.369 506.052 654.369 506.052 654.369C506.052 654.369 506.439 653.788 507.214 652.431C508.765 649.91 509.734 648.359 509.734 648.359C509.734 648.359 509.734 648.166 509.734 647.972C515.935 637.115 529.888 612.493 550.625 571.586C577.368 518.853 603.143 452.936 603.143 452.936C603.143 452.936 605.469 469.028 613.414 495.782C618.065 511.486 627.755 528.74 635.507 545.413C629.306 554.138 625.43 558.984 625.43 558.984C625.43 558.984 625.43 558.984 625.624 559.178C620.585 565.77 615.159 572.943 609.151 579.923C588.027 605.126 562.834 634.013 559.345 642.349C555.276 652.237 556.245 659.41 563.996 665.226C569.617 669.492 579.694 670.073 589.965 669.491C608.957 668.134 622.329 663.481 628.918 660.573C639.189 656.89 651.205 651.268 662.445 642.931C683.181 627.615 695.778 605.708 694.615 576.821C694.033 560.923 688.801 545.026 682.406 530.097C684.344 527.383 686.088 524.669 688.026 521.955C720.777 474.068 746.164 421.529 746.164 421.529C746.164 421.529 748.49 437.62 756.436 464.375C760.312 477.946 768.257 492.68 775.234 507.027C744.42 532.036 725.428 561.117 718.645 580.116C706.436 615.401 715.932 631.299 733.955 634.982C742.095 636.727 753.723 632.85 762.25 629.166C773.102 625.676 785.893 619.666 798.102 610.748C818.838 595.432 838.799 574.106 837.636 545.22C837.055 532.036 833.566 519.047 828.722 506.445C854.884 495.588 888.604 489.578 931.627 494.619C1023.87 505.476 1042.09 563.056 1038.6 587.29C1035.11 611.524 1015.73 624.707 1009.34 628.778C1002.94 632.85 1000.81 634.207 1001.39 637.115C1002.17 641.38 1005.27 641.186 1010.7 640.411C1018.25 639.054 1059.14 620.83 1060.89 576.239C1063.8 519.241 1009.53 457.008 913.604 457.589ZM201.986 697.603C171.366 730.949 128.731 743.551 110.321 732.888C90.5534 721.449 98.3053 672.206 135.902 636.921C158.77 615.401 188.226 595.432 207.8 583.218C212.257 580.504 218.846 576.627 226.792 571.78C228.148 571.004 228.924 570.617 228.924 570.617C230.474 569.647 232.024 568.678 233.575 567.709C247.334 618.115 234.156 662.512 201.986 697.603ZM424.851 545.995C414.192 571.974 391.906 638.472 378.34 634.788C366.712 631.686 359.542 581.28 376.015 531.455C384.348 506.445 401.983 476.589 412.254 464.956C428.921 446.345 447.331 440.141 451.789 447.702C457.409 457.589 431.44 529.71 424.851 545.995ZM608.763 634.013C604.306 636.339 600.043 637.89 598.105 636.727C596.748 635.952 600.043 632.85 600.043 632.85C600.043 632.85 623.104 608.034 632.213 596.789C637.445 590.198 643.647 582.443 650.236 573.719C650.236 574.494 650.236 575.464 650.236 576.239C650.236 605.901 621.554 625.87 608.763 634.013ZM750.622 601.636C747.327 599.31 747.909 591.555 758.955 567.321C763.219 557.821 773.296 541.924 790.544 526.608C792.482 532.812 793.838 538.822 793.644 544.444C793.451 581.861 766.707 595.82 750.622 601.636Z" fill="var(--icon-shade-001, currentColor)"/>
</svg>
