<svg width="603" height="603" viewBox="0 0 603 603" fill="none" xmlns="http://www.w3.org/2000/svg">
<path d="M494.885 0.696289H107.409C48.0887 0.696289 0 48.785 0 108.105V495.582C0 554.902 48.0887 602.991 107.409 602.991H494.885C554.206 602.991 602.294 554.902 602.294 495.582V108.105C602.294 48.785 554.206 0.696289 494.885 0.696289Z" fill="#0F466A"/>
<path fill-rule="evenodd" clip-rule="evenodd" d="M417.609 182.386H212.08V285.05H314.948C316.605 285.05 317.95 286.393 317.95 288.052V390.912H420.611V185.389C420.611 183.73 419.267 182.386 417.609 182.386Z" fill="white"/>
<path opacity="0.42" fill-rule="evenodd" clip-rule="evenodd" d="M212.093 182.381V285.041H113.055C111.718 285.041 111.048 283.424 111.994 282.478L212.093 182.381Z" fill="white"/>
<path opacity="0.42" fill-rule="evenodd" clip-rule="evenodd" d="M320.514 491.004C319.57 491.95 317.953 491.281 317.953 489.944V390.908H420.614L320.514 491.004Z" fill="white"/>
<path opacity="0.42" d="M212.117 285.047H316.486C317.314 285.047 317.987 285.718 317.987 286.548V390.913H215.119C213.46 390.913 212.117 389.57 212.117 387.911V285.047Z" fill="white"/>
</svg>
