<svg width="841" height="829" viewBox="0 0 841 829" fill="none" xmlns="http://www.w3.org/2000/svg">
<path d="M819.751 122.143L442.331 797.287C434.538 811.226 414.519 811.308 406.609 797.436L21.7053 122.208C13.0885 107.092 26.0098 88.782 43.1332 91.8437L420.957 159.403C423.368 159.834 425.835 159.83 428.245 159.39L798.168 91.9406C815.235 88.829 828.217 106.997 819.751 122.143Z" fill="url(#paint0_linear_1184_3174)"/>
<path d="M600.935 3.23066L321.633 57.9791C317.042 58.8789 313.643 62.7707 313.366 67.4412L296.186 357.722C295.781 364.559 302.058 369.865 308.729 368.326L386.49 350.374C393.766 348.695 400.34 355.105 398.845 362.425L375.742 475.598C374.187 483.215 381.336 489.728 388.771 487.468L436.801 472.871C444.247 470.609 451.401 477.141 449.826 484.764L413.111 662.533C410.814 673.653 425.599 679.716 431.765 670.183L435.884 663.816L663.475 209.45C667.286 201.842 660.714 193.167 652.361 194.78L572.319 210.234C564.797 211.684 558.397 204.677 560.52 197.315L612.762 16.1427C614.888 8.76842 608.465 1.75483 600.935 3.23066Z" fill="url(#paint1_linear_1184_3174)"/>
<defs>
<linearGradient id="paint0_linear_1184_3174" x1="12.3076" y1="67.7151" x2="482.263" y2="705.715" gradientUnits="userSpaceOnUse">
<stop stop-color="var(--icon-shade-002, currentColor)"/>
<stop offset="1" stop-color="var(--icon-shade-001, currentColor)"/>
</linearGradient>
<linearGradient id="paint1_linear_1184_3174" x1="442.5" y1="223.5" x2="484.283" y2="601.203" gradientUnits="userSpaceOnUse">
<stop stop-color="var(--icon-shade-004, currentColor)"/>
<stop offset="1" stop-color="var(--icon-shade-003, currentColor)"/>
</linearGradient>
</defs>
</svg>
