<svg width="804" height="866" viewBox="0 0 804 866" fill="none" xmlns="http://www.w3.org/2000/svg">
<path d="M637.07 0.0499878V464.58C637.07 594.41 531.83 699.65 402 699.65C272.17 699.65 166.93 594.41 166.93 464.58V0.0499878H333.23V464.58C333.23 473.611 335.008 482.554 338.465 490.897C341.921 499.241 346.986 506.822 353.372 513.208C359.758 519.594 367.339 524.659 375.683 528.115C384.026 531.571 392.969 533.35 402 533.35C411.031 533.35 419.973 531.571 428.317 528.115C436.66 524.659 444.242 519.594 450.627 513.208C457.013 506.822 462.079 499.241 465.535 490.897C468.991 482.554 470.77 473.611 470.77 464.58V0.0499878H637.07Z" fill="var(--icon-shade-001, currentColor)"/>
<path d="M803.361 0.0499878V464.58C803.361 686.25 623.671 866 402.001 866C180.331 866 0.640625 686.25 0.640625 464.58V0.0499878H166.931V464.58C166.931 594.41 272.181 699.65 402.001 699.65C531.821 699.65 637.071 594.41 637.071 464.58V0.0499878H803.361Z" fill="var(--icon-shade-003, currentColor)"/>
</svg>
