<svg width="675" height="675" viewBox="0 0 675 675" fill="none" xmlns="http://www.w3.org/2000/svg">
<path d="M47.9746 337.492C47.9746 452.093 114.577 551.132 211.155 598.064L73.0419 219.662C56.9768 255.67 47.9746 295.517 47.9746 337.492Z" fill="var(--icon-shade-001, currentColor)"/>
<path d="M532.97 322.881C532.97 287.099 520.117 262.319 509.093 243.032C494.416 219.182 480.66 198.986 480.66 175.137C480.66 148.522 500.846 123.747 529.279 123.747C530.563 123.747 531.78 123.907 533.031 123.978C481.519 76.7868 412.89 47.9739 337.511 47.9739C236.36 47.9739 147.369 99.8703 95.5977 178.475C102.391 178.679 108.792 178.822 114.23 178.822C144.515 178.822 191.393 175.148 191.393 175.148C207.001 174.228 208.841 197.151 193.25 198.997C193.25 198.997 177.565 200.842 160.112 201.757L265.549 515.366L328.911 325.339L283.801 201.746C268.21 200.831 253.439 198.986 253.439 198.986C237.837 198.071 239.666 174.217 255.268 175.137C255.268 175.137 303.084 178.811 331.534 178.811C361.813 178.811 408.697 175.137 408.697 175.137C424.316 174.217 426.15 197.14 410.554 198.986C410.554 198.986 394.836 200.831 377.415 201.746L482.048 512.981L510.928 416.477C523.445 376.431 532.97 347.667 532.97 322.881Z" fill="var(--icon-shade-001, currentColor)"/>
<path d="M342.591 362.817L255.721 615.242C281.659 622.867 309.089 627.037 337.512 627.037C371.229 627.037 403.563 621.208 433.66 610.625C432.883 609.386 432.178 608.069 431.6 606.637L342.591 362.817Z" fill="var(--icon-shade-001, currentColor)"/>
<path d="M591.566 198.583C592.811 207.806 593.517 217.706 593.517 228.355C593.517 257.735 588.029 290.763 571.501 332.06L483.061 587.757C569.138 537.563 627.035 444.309 627.035 337.497C627.041 287.16 614.182 239.825 591.566 198.583Z" fill="var(--icon-shade-001, currentColor)"/>
<path d="M337.511 0C151.412 0 0 151.397 0 337.492C0 523.608 151.412 675 337.511 675C523.604 675 675.039 523.608 675.039 337.492C675.033 151.397 523.604 0 337.511 0ZM337.511 659.53C159.946 659.53 15.4756 515.063 15.4756 337.492C15.4756 159.931 159.941 15.4753 337.511 15.4753C515.07 15.4753 659.53 159.931 659.53 337.492C659.53 515.063 515.07 659.53 337.511 659.53Z" fill="var(--icon-shade-001, currentColor)"/>
</svg>
